<?xml version="1.0" encoding="UTF-8" standalone="no"?>
<!-- Created with Inkscape (http://www.inkscape.org/) -->

<svg
   width="180"
   height="180"
   viewBox="0 0 180 180"
   version="1.1"
   id="svg1"
   xmlns="http://www.w3.org/2000/svg"
   xmlns:svg="http://www.w3.org/2000/svg">
  <defs
     id="defs1" />
  <g
     id="layer1">
    <path
       id="rect1"
       style="fill:#000000;stroke:#000000;stroke-width:0;stroke-linecap:square;stroke-linejoin:bevel"
       d="m 27.037909,36.338233 c -0.547897,0.230034 -1.094995,0.463576 -1.643018,0.69463 -0.293,0.467005 -0.600899,0.925539 -0.848466,1.418944 -0.09132,0.182003 -0.160929,0.376402 -0.2412,0.564017 -0.275111,0.681959 -0.522473,1.497799 -0.624292,2.229342 -0.137677,0.989676 -0.05743,2.010008 -0.003,3.001157 0.0907,0.301236 0.129104,0.609737 0.150398,0.920235 l 28.21793,88.912552 c 0.108266,0.14894 0.224612,0.29145 0.300793,0.46013 0.147397,0.32602 0.18268,0.44468 0.215665,0.55511 0.191528,0.20835 0.388569,0.41123 0.593074,0.60556 0.742224,0.73645 1.622243,1.24272 2.5908,1.56439 0.09625,0.0349 0.192376,0.0638 0.289445,0.089 h 90.524822 c 0.68064,-0.23967 1.34937,-0.51186 2.01192,-0.80744 0.51333,-0.21183 1.00547,-0.46823 1.48977,-0.73915 0.46014,-0.49923 0.91292,-1.00681 1.3564,-1.52284 0.11358,-0.1691 0.22678,-0.33861 0.34054,-0.50762 l 27.97952,-88.149648 c 0.002,-0.03852 0.007,-0.07727 0.009,-0.115762 0.0974,-1.62748 0.2118,-3.255689 0.25256,-4.886154 -0.007,-0.01506 -0.013,-0.02966 -0.0199,-0.04454 -0.57285,-1.290171 -1.38288,-2.461893 -2.47163,-3.324722 -0.87605,-0.781642 -0.0839,-0.138415 -0.95344,-0.694629 -0.10241,-0.06555 -0.19152,-0.150907 -0.28947,-0.222637 z" />
    <ellipse
       style="fill:#000000;stroke:#000000;stroke-width:0;stroke-linecap:square;stroke-linejoin:bevel"
       id="path3"
       cx="67.731995"
       cy="154.83191"
       rx="16.708258"
       ry="17.478539" />
    <ellipse
       style="fill:#000000;stroke:#000000;stroke-width:0;stroke-linecap:square;stroke-linejoin:bevel"
       id="path3-1"
       cx="136.50365"
       cy="154.83191"
       rx="16.708258"
       ry="17.478539" />
    <rect
       style="fill:#000000;stroke:#000000;stroke-width:0;stroke-linecap:square;stroke-linejoin:bevel"
       id="rect41"
       width="16.247398"
       height="36.787697"
       x="23.604698"
       y="7.8662615"
       ry="4.6820035"
       rx="5.0312901" />
    <rect
       style="fill:#000000;stroke:#000000;stroke-width:0;stroke-linecap:square;stroke-linejoin:bevel"
       id="rect41-2"
       width="13.866786"
       height="31.711645"
       x="-21.541304"
       y="0.029057615"
       ry="5.2646394"
       rx="4.332716"
       transform="matrix(0.00152824,-0.99999883,0.99998175,0.00604076,0,0)" />
  </g>
</svg>
