<?xml version="1.0" encoding="UTF-8" standalone="no"?>
<!-- Created with Inkscape (http://www.inkscape.org/) -->

<svg width="180" height="180" viewBox="0 0 180 180" version="1.1" id="svg1" xmlns="http://www.w3.org/2000/svg" xmlns:svg="http://www.w3.org/2000/svg">
   <defs id="defs1" />
   <g id="layer1">
      <path id="path1" style="fill:#000000;stroke:#000000;stroke-width:0;stroke-linecap:square;stroke-linejoin:bevel" d="M 89.866244,79.788641 A 78.720364,72.413796 0 0 0 12.081087,142.98982 c 0.0017,0.073 0.0042,0.14587 0.0059,0.21875 0.01049,0.393 0.0041,0.78672 0.01563,1.17969 0.0082,0.0161 0.01452,0.0349 0.01953,0.0566 0.0026,0.0109 0.0057,0.0222 0.0078,0.0332 0.0085,0.045 0.01279,0.0898 0.02149,0.13476 0.01776,0.0919 0.04588,0.18189 0.07226,0.27149 0.07082,0.23434 0.17249,0.45978 0.279297,0.67969 0.05888,0.12277 0.130145,0.23817 0.205079,0.35156 a 101.2119,93.103452 0 0 0 77.158171,33.18168 101.2119,93.103452 0 0 0 77.453126,-33.50586 c 0.007,-0.0134 0.0139,-0.0276 0.0215,-0.041 0.0867,-0.16279 0.17403,-0.32683 0.2793,-0.47851 0.062,-0.19483 0.12605,-0.38905 0.18164,-0.58594 0.0302,-0.20845 0.0628,-0.41657 0.0898,-0.625 0.0124,-0.12183 0.0213,-0.24325 0.0273,-0.36523 A 78.720364,72.413796 0 0 0 89.866244,79.788641 Z" />
      <ellipse style="fill:#000000;stroke:#000000;stroke-width:0;stroke-linecap:square;stroke-linejoin:bevel" id="path2-8" cx="90" cy="45.639317" rx="43.43158" ry="45.28627" />
   </g>
</svg>
