<?xml version="1.0" encoding="UTF-8" standalone="no"?>
<!-- Created with Inkscape (http://www.inkscape.org/) -->

<svg
   width="180"
   height="180"
   viewBox="0 0 180 180"
   version="1.1"
   id="svg1"
   inkscape:version="1.4 (86a8ad7, 2024-10-11)"
   sodipodi:docname="logo-claro.svg"
   inkscape:export-filename="logo-claro.png"
   inkscape:export-xdpi="96"
   inkscape:export-ydpi="96"
   xmlns:inkscape="http://www.inkscape.org/namespaces/inkscape"
   xmlns:sodipodi="http://sodipodi.sourceforge.net/DTD/sodipodi-0.dtd"
   xmlns:xlink="http://www.w3.org/1999/xlink"
   xmlns="http://www.w3.org/2000/svg"
   xmlns:svg="http://www.w3.org/2000/svg">
  <sodipodi:namedview
     id="namedview1"
     pagecolor="#505050"
     bordercolor="#ffffff"
     borderopacity="1"
     inkscape:showpageshadow="0"
     inkscape:pageopacity="0"
     inkscape:pagecheckerboard="1"
     inkscape:deskcolor="#505050"
     inkscape:document-units="px"
     inkscape:zoom="4"
     inkscape:cx="107.375"
     inkscape:cy="93.625"
     inkscape:window-width="1920"
     inkscape:window-height="991"
     inkscape:window-x="-9"
     inkscape:window-y="-9"
     inkscape:window-maximized="1"
     inkscape:current-layer="layer3"
     inkscape:export-bgcolor="#ffffff01" />
  <defs
     id="defs1">
    <linearGradient
       id="swatch28"
       inkscape:swatch="solid">
      <stop
         style="stop-color:#000000;stop-opacity:1;"
         offset="0"
         id="stop29" />
    </linearGradient>
    <linearGradient
       id="linearGradient20"
       inkscape:swatch="gradient">
      <stop
         style="stop-color:#776b40;stop-opacity:1;"
         offset="0"
         id="stop20" />
      <stop
         style="stop-color:#776b40;stop-opacity:0;"
         offset="1"
         id="stop21" />
    </linearGradient>
    <linearGradient
       id="swatch19"
       inkscape:swatch="solid">
      <stop
         style="stop-color:#776b40;stop-opacity:1;"
         offset="0"
         id="stop19" />
    </linearGradient>
    <linearGradient
       id="swatch18">
      <stop
         style="stop-color:#776b40;stop-opacity:1;"
         offset="0"
         id="stop18" />
    </linearGradient>
    <linearGradient
       id="swatch11"
       inkscape:swatch="solid">
      <stop
         style="stop-color:#776b40;stop-opacity:1;"
         offset="0"
         id="stop12" />
    </linearGradient>
    <linearGradient
       id="linearGradient9"
       inkscape:swatch="gradient">
      <stop
         style="stop-color:#000000;stop-opacity:1;"
         offset="0"
         id="stop10" />
      <stop
         style="stop-color:#000000;stop-opacity:0;"
         offset="1"
         id="stop11" />
    </linearGradient>
    <linearGradient
       id="swatch5"
       inkscape:swatch="solid">
      <stop
         style="stop-color:#000000;stop-opacity:1;"
         offset="0"
         id="stop5" />
    </linearGradient>
    <linearGradient
       id="swatch4"
       inkscape:swatch="solid">
      <stop
         style="stop-color:#000000;stop-opacity:1;"
         offset="0"
         id="stop4" />
    </linearGradient>
    <inkscape:path-effect
       effect="fillet_chamfer"
       id="path-effect4"
       is_visible="true"
       lpeversion="1"
       nodesatellites_param="F,0,0,1,0,0,0,1 @ F,0,0,1,0,0,0,1 @ F,0,0,1,0,0,0,1 @ F,0,0,1,0,0,0,1"
       radius="0"
       unit="px"
       method="auto"
       mode="F"
       chamfer_steps="1"
       flexible="false"
       use_knot_distance="true"
       apply_no_radius="true"
       apply_with_radius="true"
       only_selected="false"
       hide_knots="false" />
    <linearGradient
       inkscape:collect="always"
       xlink:href="#swatch18"
       id="linearGradient19"
       x1="0"
       y1="45"
       x2="180"
       y2="45"
       gradientUnits="userSpaceOnUse"
       gradientTransform="matrix(0.99167817,0,0,1.0103875,0.74896001,0.9658703)" />
    <linearGradient
       inkscape:collect="always"
       xlink:href="#swatch19"
       id="linearGradient23"
       gradientUnits="userSpaceOnUse"
       x1="32"
       y1="90"
       x2="148"
       y2="90" />
  </defs>
  <g
     inkscape:label="Ciculo"
     inkscape:groupmode="layer"
     id="layer1">
    <path
       id="path1"
       style="display:inline;fill:#776b40;fill-opacity:1"
       d="m 0,90 a 90,90 0 0 0 90,90 90,90 0 0 0 90,-90 z" />
    <path
       id="path4"
       style="display:inline;fill:#ffffff;fill-opacity:1;stroke:url(#linearGradient19);stroke-width:1.49794;stroke-dasharray:none"
       d="M 0.74896002,91.900761 H 179.25104 A 89.251037,90.93489 0 0 0 89.999997,0.96587042 89.251037,90.93489 0 0 0 0.74896002,91.900761 Z" />
  </g>
  <g
     inkscape:groupmode="layer"
     id="layer2"
     inkscape:label="Circulo pequeño">
    <circle
       style="display:inline;fill:#ffffff;fill-opacity:1;stroke:url(#linearGradient23);opacity:1;stroke-opacity:1;stroke-miterlimit:4;stroke-width:1.5;stroke-dasharray:none"
       id="path1-8"
       cx="90"
       cy="90"
       r="57.5" />
  </g>
  <g
     inkscape:groupmode="layer"
     id="layer4"
     inkscape:label="Hojas">
    <circle
       style="opacity:1;fill:#ffffff;fill-opacity:1;stroke:#000000;stroke-width:1.7;stroke-miterlimit:4;stroke-dasharray:none;stroke-opacity:1"
       id="path25"
       cx="90"
       cy="90"
       r="44.349998" />
    <circle
       style="fill:#ffffff;fill-opacity:1;stroke:#000000;stroke-width:0.3;stroke-miterlimit:4;stroke-dasharray:none;stroke-opacity:1"
       id="path25-8"
       cx="90"
       cy="88.760155"
       r="44.349998" />
    <path
       id="path24"
       style="opacity:1;fill:#000000;fill-opacity:1;stroke:#776b40;stroke-width:0;stroke-miterlimit:4;stroke-dasharray:none;stroke-opacity:1"
       d="m 69.49818,135.12359 c 0.315154,0.29732 0.65708,0.5652 1.021264,0.80009 3.186546,1.99835 7.338161,1.13611 9.342448,-1.9403 1.87929,-3.15501 0.83739,-7.28251 -2.344602,-9.28817 -0.369489,-0.22638 -0.758792,-0.41823 -1.162766,-0.57303 -1.621722,2.73161 -1.078497,6.26138 1.304473,8.4762 -3.024725,-1.18509 -6.423153,-0.13351 -8.160817,2.52521 z"
       sodipodi:nodetypes="ccccccc" />
    <path
       id="path24-1"
       style="fill:#000000;fill-opacity:1;stroke:#776b40;stroke-width:0;stroke-miterlimit:4;stroke-dasharray:none;stroke-opacity:1"
       d="m 109.1733,135.12359 c -0.31516,0.29732 -0.65708,0.5652 -1.02127,0.80009 -3.18654,1.99835 -7.33816,1.13611 -9.34244,-1.9403 -1.879293,-3.15501 -0.837393,-7.28251 2.3446,-9.28817 0.36949,-0.22638 0.75879,-0.41823 1.16276,-0.57303 1.62173,2.73161 1.0785,6.26138 -1.30447,8.4762 3.02473,-1.18509 6.42315,-0.13351 8.16082,2.52521 z"
       sodipodi:nodetypes="ccccccc" />
    <path
       id="path24-8"
       style="fill:#000000;fill-opacity:1;stroke:#776b40;stroke-width:0;stroke-miterlimit:4;stroke-dasharray:none;stroke-opacity:1"
       d="m 56.660764,130.04003 c 0.418409,0.34632 0.872361,0.65835 1.355864,0.93194 4.230566,2.32767 9.742388,1.32334 12.403347,-2.26004 2.495008,-3.67494 1.111747,-8.48262 -3.112773,-10.8188 -0.490546,-0.26369 -1.007397,-0.48715 -1.543726,-0.66746 -2.153053,3.18176 -1.43185,7.29321 1.731862,9.87302 -4.015726,-1.38039 -8.527594,-0.15551 -10.834574,2.94134 z"
       sodipodi:nodetypes="ccccccc" />
    <path
       id="path24-8-4"
       style="fill:#000000;fill-opacity:1;stroke:#776b40;stroke-width:0;stroke-miterlimit:4;stroke-dasharray:none;stroke-opacity:1"
       d="m 123.75,130.04003 c -0.41841,0.34632 -0.87236,0.65835 -1.35586,0.93194 -4.23057,2.32767 -9.74239,1.32334 -12.40335,-2.26004 -2.49501,-3.67494 -1.11175,-8.48262 3.11277,-10.8188 0.49055,-0.26369 1.0074,-0.48715 1.54373,-0.66746 2.15305,3.18176 1.43185,7.29321 -1.73186,9.87302 4.01572,-1.38039 8.52759,-0.15551 10.83457,2.94134 z"
       sodipodi:nodetypes="ccccccc" />
    <path
       id="path24-8-1"
       style="fill:#000000;fill-opacity:1;stroke:#776b40;stroke-width:0;stroke-miterlimit:4;stroke-dasharray:none;stroke-opacity:1"
       d="m 37.25504,100.95026 c 0.233663,0.56962 0.514004,1.1205 0.837335,1.64533 2.856964,4.52242 8.279175,6.16065 12.201684,3.68657 3.810545,-2.65175 4.580469,-8.394435 1.732573,-12.922852 -0.333888,-0.517843 -0.708577,-1.006164 -1.119102,-1.458545 -3.292708,2.299364 -4.369937,6.984528 -2.586797,11.250687 -3.06101,-3.419137 -7.669128,-4.335772 -11.065693,-2.20119 z"
       sodipodi:nodetypes="ccccccc" />
    <path
       id="path24-8-1-8"
       style="fill:#000000;fill-opacity:1;stroke:#776b40;stroke-width:0;stroke-miterlimit:4;stroke-dasharray:none;stroke-opacity:1"
       d="m 142.74496,100.95026 c -0.23366,0.56962 -0.514,1.1205 -0.83734,1.64533 -2.85696,4.52242 -8.27917,6.16065 -12.20168,3.68657 -3.81054,-2.65175 -4.58047,-8.394439 -1.73257,-12.922853 0.33389,-0.517843 0.70857,-1.006164 1.1191,-1.458545 3.29271,2.29936 4.36994,6.98453 2.5868,11.250688 3.06101,-3.419138 7.66912,-4.335778 11.06569,-2.20119 z"
       sodipodi:nodetypes="ccccccc" />
    <path
       id="path24-8-1-2"
       style="fill:#000000;fill-opacity:1;stroke:#776b40;stroke-width:0;stroke-miterlimit:4;stroke-dasharray:none;stroke-opacity:1"
       d="m 40.726137,64.64649 c -0.243134,0.598523 -0.446525,1.221758 -0.607456,1.861464 -1.345364,5.57015 0.728988,11.171312 4.667922,12.604406 3.99195,1.214486 8.268158,-2.266679 9.622811,-7.833714 0.150111,-0.643327 0.256726,-1.298849 0.318469,-1.957921 -3.454775,-1.043735 -7.205732,1.429569 -9.007335,5.939251 0.49105,-4.947197 -1.588792,-9.366996 -4.994411,-10.613486 z"
       sodipodi:nodetypes="ccccccc" />
    <path
       id="path24-8-1-2-2"
       style="fill:#000000;fill-opacity:1;stroke:#776b40;stroke-width:0;stroke-miterlimit:4;stroke-dasharray:none;stroke-opacity:1"
       d="m 138.92225,64.64649 c 0.24313,0.598523 0.44652,1.221758 0.60745,1.861464 1.34537,5.57015 -0.72899,11.171312 -4.66792,12.604406 -3.99195,1.214486 -8.26816,-2.266679 -9.62281,-7.833714 -0.15011,-0.643327 -0.25673,-1.298849 -0.31847,-1.957921 3.45477,-1.043735 7.20573,1.429569 9.00733,5.939251 -0.49105,-4.947197 1.5888,-9.366996 4.99442,-10.613486 z"
       sodipodi:nodetypes="ccccccc" />
    <path
       id="path24-8-1-2-9"
       style="fill:#000000;fill-opacity:1;stroke:#776b40;stroke-width:0;stroke-miterlimit:4;stroke-dasharray:none;stroke-opacity:1"
       d="m 64.822801,40.603011 c -0.510975,0.395285 -1.000006,0.831906 -1.460605,1.304104 -3.962253,4.139702 -4.983516,10.024681 -2.298197,13.243068 2.84101,3.056029 8.287424,2.195194 12.256144,-1.937146 0.453063,-0.480766 0.87465,-0.993934 1.259226,-1.532719 -2.462391,-2.638462 -6.948223,-2.385044 -10.772022,0.608544 2.910596,-4.030424 3.333458,-8.896794 1.015457,-11.68585 z"
       sodipodi:nodetypes="ccccccc" />
    <path
       id="path24-8-1-2-9-0"
       style="fill:#000000;fill-opacity:1;stroke:#776b40;stroke-width:0;stroke-miterlimit:4;stroke-dasharray:none;stroke-opacity:1"
       d="m 115.56426,40.603011 c 0.51097,0.395285 1,0.831906 1.4606,1.304104 3.96225,4.139702 4.98352,10.024681 2.2982,13.243068 -2.84101,3.056029 -8.28743,2.195194 -12.25615,-1.937146 -0.45306,-0.480766 -0.87465,-0.993934 -1.25922,-1.532719 2.46239,-2.638462 6.94822,-2.385044 10.77202,0.608544 -2.9106,-4.030424 -3.33346,-8.896794 -1.01546,-11.68585 z"
       sodipodi:nodetypes="ccccccc" />
    <path
       id="path24-8-1-2-9-3"
       style="fill:#000000;fill-opacity:1;stroke:#776b40;stroke-width:0;stroke-miterlimit:4;stroke-dasharray:none;stroke-opacity:1"
       d="m 89.999843,44.423226 c -0.735406,-0.270104 -1.503127,-0.502602 -2.297145,-0.693938 -6.918326,-1.611003 -14.154491,0.14079 -16.281376,3.942952 -0.05622,0.117021 -0.103224,0.23411 -0.147356,0.352138 0.0032,0.0012 -0.621094,1.036934 -0.617799,1.038034 0.509383,0.08064 1.534252,-0.327361 2.213064,-0.554303 0.899075,-0.02588 1.507479,0.0408 2.295684,0.164229 0.459037,0.07491 0.932052,0.07183 1.38772,0.157267 -0.109174,-0.04176 -0.233491,0.0018 -0.344918,-0.03848 6.201585,0.738217 11.943983,-1.08092 13.792287,-4.367874 z m -6.759212,12.819691 c -0.0282,0.01963 -0.05636,0.03913 -0.08537,0.05782 0.02135,0.0088 0.04081,0.01972 0.06069,0.03055 0.009,-0.02932 0.01622,-0.05904 0.02464,-0.08838 z m -5.096549,-0.651472 c -0.155959,0.02338 -0.311917,0.04719 -0.467894,0.07046 0.0043,0.0019 0.0086,0.0027 0.01295,0.0045 0.146418,-0.01608 0.292588,-0.03562 0.438375,-0.05505 0.0034,-0.0075 0.0094,-0.01372 0.01671,-0.01976 z"
       sodipodi:nodetypes="cccccccccccccccccccccc" />
    <path
       id="path24-8-1-2-9-3-6"
       style="fill:#000000;fill-opacity:1;stroke:#776b40;stroke-width:0;stroke-miterlimit:4;stroke-dasharray:none;stroke-opacity:1"
       d="m 90.042646,44.423226 c 0.735406,-0.270104 1.503127,-0.502602 2.297145,-0.693938 6.918326,-1.611003 14.154489,0.14079 16.281379,3.942952 0.0562,0.117021 0.10322,0.23411 0.14735,0.352138 -0.003,0.0012 0.6211,1.036934 0.6178,1.038034 -0.50938,0.08064 -1.53425,-0.327361 -2.21306,-0.554303 -0.89908,-0.02588 -1.50748,0.0408 -2.29569,0.164229 -0.45903,0.07491 -0.93205,0.07183 -1.38772,0.157267 0.10918,-0.04176 0.2335,0.0018 0.34492,-0.03848 -6.201583,0.738217 -11.943981,-1.08092 -13.792285,-4.367874 z m 6.759212,12.819691 c 0.0282,0.01963 0.05636,0.03913 0.08537,0.05782 -0.02135,0.0088 -0.04081,0.01972 -0.06069,0.03055 -0.009,-0.02932 -0.01622,-0.05904 -0.02464,-0.08838 z m 5.096552,-0.651472 c 0.15596,0.02338 0.31191,0.04719 0.46789,0.07046 -0.004,0.0019 -0.009,0.0027 -0.0129,0.0045 -0.14642,-0.01608 -0.29259,-0.03562 -0.43837,-0.05505 -0.003,-0.0075 -0.009,-0.01372 -0.0167,-0.01976 z"
       sodipodi:nodetypes="cccccccccccccccccccccc" />
    <path
       id="path24-8-5"
       style="fill:#000000;fill-opacity:1;stroke:#776b40;stroke-width:0;stroke-miterlimit:4;stroke-dasharray:none;stroke-opacity:1"
       d="m 42.139663,114.6832 c 0.243562,0.77196 0.54459,1.5239 0.899143,2.24577 3.14053,6.22725 9.563279,8.91342 14.453213,6.04476 4.766892,-3.11331 6.076716,-10.58948 2.947518,-16.82377 -0.36774,-0.71372 -0.786593,-1.39263 -1.251011,-2.02778 -4.119621,2.7007 -5.729227,8.75606 -3.865219,14.54105 -3.45978,-4.79647 -8.949879,-6.45387 -13.183644,-3.98003 z"
       sodipodi:nodetypes="ccccccc" />
    <path
       id="path24-8-5-9"
       style="fill:#000000;fill-opacity:1;stroke:#776b40;stroke-width:0;stroke-miterlimit:4;stroke-dasharray:none;stroke-opacity:1"
       d="m 138.125,114.6832 c -0.24356,0.77196 -0.54459,1.5239 -0.89914,2.24577 -3.14053,6.22725 -9.56328,8.91342 -14.45322,6.04476 -4.76689,-3.11331 -6.07671,-10.58948 -2.94752,-16.82377 0.36774,-0.71372 0.7866,-1.39263 1.25102,-2.02778 4.11962,2.7007 5.72922,8.75606 3.86521,14.54105 3.45978,-4.79647 8.94988,-6.45387 13.18365,-3.98003 z"
       sodipodi:nodetypes="ccccccc" />
    <path
       id="path24-8-5-7"
       style="fill:#000000;fill-opacity:1;stroke:#776b40;stroke-width:0;stroke-miterlimit:4;stroke-dasharray:none;stroke-opacity:1"
       d="m 34.503462,80.673071 c -0.02376,0.809135 0.01445,1.618223 0.114218,2.416478 0.939508,6.913087 6.220858,11.55871 11.884694,10.454147 5.627253,-1.376045 9.387098,-8.008 8.460845,-14.924017 -0.115179,-0.794884 -0.291175,-1.573666 -0.525642,-2.32607 -4.866545,1.198769 -8.439771,6.390237 -8.580565,12.466546 -1.725041,-5.666382 -6.453034,-9.034095 -11.35355,-8.087084 z"
       sodipodi:nodetypes="ccccccc" />
    <path
       id="path24-8-5-7-2"
       style="fill:#000000;fill-opacity:1;stroke:#776b40;stroke-width:0;stroke-miterlimit:4;stroke-dasharray:none;stroke-opacity:1"
       d="m 145.41525,80.673069 c 0.0238,0.809135 -0.0144,1.618223 -0.11422,2.416478 -0.93951,6.913087 -6.22086,11.55871 -11.88469,10.45415 -5.62725,-1.37605 -9.3871,-8.008003 -8.46085,-14.92402 0.11518,-0.794884 0.29118,-1.573666 0.52565,-2.32607 4.86654,1.198769 8.43977,6.390237 8.58056,12.466546 1.72504,-5.666382 6.45304,-9.034095 11.35355,-8.087084 z"
       sodipodi:nodetypes="ccccccc" />
    <path
       id="path24-8-5-7-1"
       style="fill:#000000;fill-opacity:1;stroke:#776b40;stroke-width:0;stroke-miterlimit:4;stroke-dasharray:none;stroke-opacity:1"
       d="m 53.035823,48.997411 c -0.622885,0.51699 -1.204774,1.080451 -1.737846,1.682945 -4.566633,5.274401 -4.561891,12.308208 0.01064,15.828298 4.752076,3.313195 12.213908,1.751041 16.791501,-3.51535 0.520356,-0.61183 0.98843,-1.258656 1.398061,-1.931922 -4.116236,-2.85953 -10.373766,-2.109464 -15.02653,1.80118 3.111879,-5.039827 2.513941,-10.813723 -1.435828,-13.865151 z"
       sodipodi:nodetypes="ccccccc" />
    <path
       id="path24-8-5-7-1-5"
       style="fill:#000000;fill-opacity:1;stroke:#776b40;stroke-width:0;stroke-miterlimit:4;stroke-dasharray:none;stroke-opacity:1"
       d="m 126.87144,48.997411 c 0.62289,0.51699 1.20478,1.080451 1.73785,1.682945 4.56663,5.274401 4.56189,12.308208 -0.0106,15.828298 -4.75208,3.313195 -12.21391,1.751041 -16.7915,-3.51535 -0.52036,-0.61183 -0.98843,-1.258656 -1.39806,-1.931922 4.11623,-2.85953 10.37376,-2.109464 15.02653,1.80118 -3.11188,-5.039827 -2.51394,-10.813723 1.43582,-13.865151 z"
       sodipodi:nodetypes="ccccccc" />
    <text
       xml:space="preserve"
       style="font-style:normal;font-variant:normal;font-weight:bold;font-stretch:normal;font-size:29.3333px;line-height:0;font-family:'Bell MT';-inkscape-font-specification:'Bell MT, Bold';font-variant-ligatures:normal;font-variant-caps:normal;font-variant-numeric:normal;font-variant-east-asian:normal;text-align:center;letter-spacing:2px;writing-mode:lr-tb;direction:ltr;text-anchor:middle;fill:#000000;fill-opacity:1;stroke:#000000;stroke-width:1;stroke-linecap:square;stroke-linejoin:bevel;stroke-dasharray:none"
       x="90.25"
       y="100.77058"
       id="text13"><tspan
         sodipodi:role="line"
         id="tspan13"
         x="91.25"
         y="100.77058"
         style="font-style:normal;font-variant:normal;font-weight:bold;font-stretch:normal;font-size:42.6667px;font-family:'Bell MT';-inkscape-font-specification:'Bell MT, Bold';font-variant-ligatures:normal;font-variant-caps:normal;font-variant-numeric:normal;font-variant-east-asian:normal">la</tspan></text>
  </g>
  <g
     inkscape:groupmode="layer"
     id="layer3"
     inkscape:label="Textos"
     transform="translate(-181.12767,-16.300129)">
    <path
       d="m 201.20002,138.04398 2.08487,4.36795 -0.64858,0.30958 -2.43234,-5.09595 8.57707,-4.09392 0.34748,0.72799 z m 3.34633,7.92153 8.1395,-4.90662 0.41646,0.69085 -8.1395,4.90663 z m 9.53748,5.21777 q 0.5415,1.00655 0.37521,1.83161 -0.15744,0.83674 -0.89405,1.39458 -0.57292,0.43388 -1.25312,0.50745 -0.65965,0.0764 -1.40956,-0.33077 -0.73821,-0.41603 -1.47314,-1.38649 l -1.85947,-2.45536 7.57656,-5.73779 1.8329,2.42029 q 0.59326,0.78338 0.79613,1.51284 0.20287,0.72947 -0.008,1.34939 -0.1907,0.62277 -0.7987,1.08321 -0.60799,0.46044 -1.35017,0.45216 -0.73333,0.003 -1.53421,-0.64112 z m 0.99989,-5.11753 -2.88797,2.18709 1.27506,1.68368 q 0.63753,0.84184 1.41616,1.11688 0.79032,0.26619 1.58539,-0.33593 0.39753,-0.30105 0.551,-0.73004 0.15347,-0.42899 0.0278,-0.95934 -0.12568,-0.53036 -0.55955,-1.10328 z m -5.04304,6.79959 q 0.78806,1.04061 1.57202,1.20123 0.79281,0.1723 1.45927,-0.33241 0.73661,-0.55784 0.74454,-1.37335 0.0196,-0.82437 -0.7153,-1.79483 l -1.44331,-1.90583 -3.05166,2.31105 z m 8.98626,10.83986 -0.0519,0.0518 -0.6524,-0.65433 0.66061,-4.92522 -1.30481,-1.30866 -2.79388,2.78567 -0.56956,-0.57124 6.73024,-6.71046 1.95722,1.96299 q 0.73525,0.73741 1.0245,1.50529 0.29965,0.75752 0.14303,1.47288 -0.14623,0.70501 -0.72786,1.28493 -0.50892,0.50742 -1.13148,0.71393 -0.60182,0.20653 -1.28611,0.0811 -0.6843,-0.12546 -1.36805,-0.62427 z m -0.86038,-7.32314 1.36695,1.37097 q 0.89058,0.89321 1.74094,0.93595 0.86071,0.0531 1.54619,-0.63036 0.68549,-0.68347 0.61413,-1.52362 -0.061,-0.82976 -0.95159,-1.72297 l -1.36695,-1.37098 z m 4.72916,9.70374 3.83478,2.95299 -0.42952,0.55779 -4.47391,-3.44516 5.79861,-7.53011 4.4158,3.40042 -0.42952,0.55778 -3.77668,-2.90825 -2.21922,2.88189 3.32347,2.55927 -0.4903,0.49247 -3.25375,-2.50557 z m 12.73035,9.13068 -0.0368,0.0634 -0.7993,-0.46357 -0.63423,-4.92869 -1.5986,-0.92713 -1.97937,3.41289 -0.6978,-0.4047 4.76813,-8.2214 2.39791,1.39071 q 0.9008,0.52243 1.37862,1.18951 0.48517,0.65439 0.51868,1.38594 0.0409,0.71885 -0.37119,1.42934 -0.36055,0.62168 -0.90863,0.98201 -0.52803,0.355 -1.22151,0.41058 -0.69348,0.0556 -1.48288,-0.24964 z m -2.72309,-6.85227 1.67473,0.97129 q 1.09111,0.63281 1.92364,0.45441 0.84521,-0.17105 1.33086,-1.00841 0.48564,-0.83737 0.19965,-1.63056 -0.2733,-0.78584 -1.36441,-1.41864 l -1.67473,-0.97129 z m 6.0761,8.45459 3.89735,-8.66817 0.73573,0.3308 -3.89735,8.66816 z m 3.97803,-9.41986 -0.14258,-0.43397 2.7296,-0.67029 0.15471,0.72889 z m 7.51768,3.68621 0.66241,10.13445 -0.0227,0.0697 -0.80882,-0.26352 -0.19327,-3.19436 -4.19751,-1.36761 -2.02401,2.47193 -0.75304,-0.24535 0.0227,-0.0697 6.47753,-7.80815 z m -4.0814,4.80959 3.68153,1.19949 -0.30505,-5.31322 z m 18.45161,-1.88811 2.81984,9.75675 -0.007,0.073 -0.84651,-0.084 -0.87366,-3.07863 -4.3931,-0.43586 -1.44696,2.8484 -0.78814,-0.0782 0.007,-0.073 4.65282,-9.01537 z m -2.95531,5.57279 3.85309,0.38228 -1.43711,-5.12426 z m 10.29474,3.50105 4.8383,-0.12853 0.0191,0.71841 -5.64469,0.14996 -0.2524,-9.50067 0.80638,-0.0214 z m 6.58007,-3.21585 -0.0923,-0.71271 3.86901,-0.50121 0.0923,0.71272 z m 9.46291,-7.75235 5.96764,8.21785 0.018,0.0711 -0.82467,0.20868 -1.86787,-2.59853 -4.27978,1.08298 -0.39288,3.1706 -0.7678,0.19429 -0.018,-0.0711 1.31225,-10.05999 z m -0.88564,6.24544 3.75369,-0.94985 -3.09295,-4.33094 z m -0.34283,-6.6759 -0.38134,-0.25147 1.72244,-2.22108 0.57407,0.47503 z m 13.88309,-4.12981 3.68262,8.76155 -0.87886,0.3694 -7.54034,-4.88093 q -0.0882,-0.0584 -0.38545,-0.23573 -0.28944,-0.19653 -0.53262,-0.3966 l 3.23934,7.70692 -0.71661,0.3012 -3.68262,-8.76155 0.82477,-0.34667 7.47921,4.81117 q 0.27806,0.16949 0.55397,0.37172 0.28375,0.18301 0.50774,0.37524 l -3.26776,-7.77452 z m 5.19275,-2.92081 q 2.05235,-1.25439 3.69529,-0.90061 1.65546,0.34614 2.92515,2.42352 1.26204,2.06487 0.72263,3.7697 -0.54707,1.69232 -2.69954,3.0079 l -1.85212,1.13202 -4.95639,-8.10929 z m 4.26388,7.70748 q 1.15132,-0.70369 1.79369,-1.50885 0.64238,-0.80516 0.659,-1.84668 0.009,-1.05402 -0.80945,-2.39306 -1.05552,-1.72698 -2.40923,-2.08565 -1.3412,-0.36632 -3.08069,0.69686 l -1.52675,0.93314 4.22211,6.90792 z m 4.48159,-13.93674 8.91726,4.8609 0.0468,0.0565 -0.65528,0.54245 -2.8024,-1.54525 -3.40065,2.81512 1.00605,3.03232 -0.61009,0.50504 -0.0468,-0.0565 -3.13276,-9.64942 z m 1.88078,6.02102 2.98263,-2.46909 -4.65249,-2.58413 z m 9.73225,-4.84775 3.30045,-3.54016 0.52566,0.49007 -3.85052,4.13019 -6.9516,-6.48088 0.55007,-0.59002 z m 8.04629,-8.35492 q -0.72051,1.01738 -1.59866,1.41989 -0.88164,0.38207 -1.82516,0.21708 -0.94352,-0.16498 -1.87711,-0.82616 l -4.73977,-3.35673 0.46622,-0.6583 4.6081,3.26349 q 2.69305,1.90723 4.4138,-0.52249 0.8307,-1.17298 0.59274,-2.25809 -0.24146,-1.10556 -1.53412,-2.02103 l -4.65598,-3.2974 0.46621,-0.6583 4.70386,3.3313 q 1.10116,0.77985 1.52262,1.70736 0.41798,0.90707 0.25299,1.8506 -0.16848,0.92307 -0.79574,1.80878 z m 5.65282,-9.28807 q -0.416,0.8086 -1.02649,1.41818 -0.62353,0.60287 -1.4151,0.98734 l -0.34053,-0.62051 q 0.72561,-0.35243 1.27647,-0.91022 0.55757,-0.57083 0.88634,-1.20989 0.56361,-1.09553 0.39527,-1.85838 -0.16834,-0.76284 -0.95085,-1.16542 -0.52168,-0.26838 -0.97522,-0.18832 -0.46657,0.0734 -0.90299,0.37663 -0.43642,0.30328 -1.09275,0.90577 l -0.20573,0.20754 q -0.71596,0.65428 -1.23177,1.01569 -0.50909,0.34836 -1.08746,0.44666 -0.59142,0.0916 -1.23048,-0.23718 -0.66514,-0.34218 -0.95983,-0.95561 -0.30101,-0.63319 -0.23346,-1.37364 0.0545,-0.74717 0.42354,-1.46448 0.36902,-0.71731 0.89342,-1.25572 0.51136,-0.54512 1.28393,-0.98885 l 0.34052,0.62052 q -0.6671,0.39902 -1.12516,0.8726 -0.45135,0.46054 -0.78012,1.0996 -0.24154,0.46951 -0.31316,0.99345 -0.0716,0.52394 0.10681,0.97861 0.17844,0.45466 0.68708,0.71633 0.43039,0.22142 0.81124,0.18644 0.38757,-0.048 0.81057,-0.32521 0.42971,-0.29024 1.05958,-0.87336 l 0.21878,-0.20083 q 0.72938,-0.68037 1.25189,-1.05481 0.52251,-0.37445 1.19293,-0.49137 0.67714,-0.12997 1.43357,0.25919 0.71731,0.36903 1.06454,0.9765 0.33419,0.60077 0.27259,1.39377 -0.0616,0.793 -0.53797,1.71898 z"
       id="text51"
       style="-inkscape-font-specification:'Dubai, Light';fill:#ffffff;stroke:#000000;stroke-width:0;stroke-linecap:square;stroke-linejoin:bevel"
       aria-label="LIBRERÍA AL-ÁNDALUS" />
    <path
       d="m 207.12663,91.300723 1.20978,-4.686378 0.69586,0.179633 -1.41141,5.467442 -9.20234,-2.375565 0.20163,-0.781063 z m 3.21871,-8.036844 -8.8661,-3.423278 0.29056,-0.752523 8.86609,3.423278 z m -0.13283,-11.330453 q 0.69086,-0.91054 1.51048,-1.101824 0.82658,-0.204193 1.63991,0.234307 0.63258,0.341055 0.98193,0.929306 0.3434,0.56838 0.28434,1.419654 -0.072,0.844313 -0.64967,1.915837 l -1.46167,2.711084 -8.36563,-4.510284 1.44079,-2.672354 q 0.46634,-0.864965 1.04572,-1.352396 0.57939,-0.48743 1.23106,-0.552646 0.64573,-0.08509 1.31704,0.276849 0.67132,0.361937 0.97195,1.040557 0.30758,0.66571 0.0538,1.66191 z m -5.07072,1.215169 3.18875,1.719197 1.00228,-1.859028 q 0.50114,-0.929515 0.42807,-1.752051 -0.086,-0.829497 -0.96386,-1.302798 -0.43893,-0.236651 -0.89292,-0.19815 -0.45398,0.0385 -0.88428,0.373033 -0.4303,0.334533 -0.77135,0.967119 z m 8.27966,1.764606 q 0.61947,-1.148983 0.44009,-1.928861 -0.17243,-0.792788 -0.90829,-1.189526 -0.81333,-0.4385 -1.55852,-0.107114 -0.7581,0.324426 -1.33581,1.395949 l -1.13453,2.104318 3.36949,1.816642 z m 8.51167,-11.384208 0.0581,0.04475 -0.56385,0.73202 -4.96931,-0.01396 -1.1277,1.46404 3.12561,2.40755 -0.49225,0.639065 -7.52935,-5.7996 1.69155,-2.19606 q 0.63545,-0.824975 1.35914,-1.211712 0.71208,-0.395688 1.44174,-0.333511 0.71805,0.05323 1.36873,0.554428 0.56935,0.43855 0.85512,1.028937 0.28311,0.569818 0.24778,1.264623 -0.0353,0.694805 -0.4409,1.437659 z m -7.14887,1.806199 1.1814,-1.533756 q 0.7697,-0.999265 0.70139,-1.847948 -0.0593,-0.860302 -0.82623,-1.451002 -0.76688,-0.5907 -1.5906,-0.410598 -0.81476,0.168483 -1.58446,1.167748 l -1.1814,1.533756 z m 9.88064,-5.524264 3.51265,-3.329712 0.48433,0.510932 -4.0981,3.884664 -6.53834,-6.897572 4.04487,-3.834214 0.48432,0.510931 -3.45943,3.279262 2.50233,2.639811 3.0443,-2.88575 0.41037,0.560827 -2.98044,2.82521 z m 12.74814,-9.303243 0.0416,0.0604 -0.76111,0.523929 -4.72578,-1.536624 -1.5222,1.047858 2.23709,3.24979 -0.66445,0.457399 -5.38899,-7.82849 2.28331,-1.571788 q 0.85775,-0.59046 1.66516,-0.73673 0.79909,-0.158351 1.47456,0.12451 0.66716,0.27078 1.13287,0.947316 0.4075,0.591969 0.49854,1.241536 0.0948,0.62917 -0.15182,1.279694 -0.24662,0.650524 -0.86039,1.233284 z m -7.35838,-0.472239 1.59469,-1.097756 q 1.03897,-0.715205 1.23411,-1.543967 0.20723,-0.837078 -0.34165,-1.634424 -0.54888,-0.797346 -1.38815,-0.878425 -0.82718,-0.08939 -1.86615,0.625811 l -1.59469,1.097756 z m 10.69684,-1.202262 -4.38916,-8.429807 0.71549,-0.372538 4.38917,8.429807 z m -4.9292,-8.958872 -0.42898,-0.156965 1.16509,-2.557841 0.66798,0.330165 z m 10.03867,-3.664338 6.78815,7.554257 0.0253,0.06884 -0.79857,0.293127 -2.12742,-2.390682 -4.1443,1.521226 -0.0618,3.194253 -0.7435,0.272911 -0.0253,-0.06884 0.26129,-10.141857 z m -0.2328,6.303629 3.63487,-1.334232 -3.52566,-3.986619 z m 18.92522,-10.42813 4.63934,9.034509 0.007,0.07301 -0.8469,0.07998 -1.44807,-2.853831 -4.39512,0.415078 -0.8736,3.073092 -0.7885,0.07447 -0.007,-0.07301 2.83674,-9.740556 z m -1.83124,6.036265 3.85485,-0.364056 -2.39353,-4.753356 z m 11.06433,2.506177 4.83258,0.268075 -0.0398,0.717565 -5.63801,-0.312753 0.5264,-9.489433 0.80543,0.04468 z m 7.5895,-2.147544 0.12679,-0.707396 3.84015,0.688279 -0.12679,0.707396 z m 13.54587,-2.783879 0.61902,10.13719 -0.023,0.06963 -0.80769,-0.266985 -0.1796,-3.195155 -4.19161,-1.385563 -2.03457,2.463246 -0.75198,-0.248572 0.023,-0.06963 6.51089,-7.780352 z m -4.10195,4.792072 3.67636,1.215245 -0.2823,-5.314479 z m 3.29701,-5.815064 -0.18657,-0.416956 2.64595,-0.948139 0.22904,0.709046 z m 15.85592,7.943309 -4.54106,8.348965 -0.83747,-0.455508 -0.8991,-8.937101 q -0.009,-0.105336 -0.0567,-0.448246 -0.0273,-0.348785 -0.023,-0.663663 l -3.99445,7.343997 -0.68287,-0.371414 4.54106,-8.348965 0.78594,0.427476 0.91538,8.845781 q 0.0414,0.323017 0.0558,0.664794 0.0343,0.335902 0.0242,0.630888 l 4.02949,-7.408418 z m 7.40921,5.273179 q 1.87358,1.508429 2.09517,3.174358 0.23301,1.675127 -1.29381,3.571554 -1.51763,1.885002 -3.30448,1.952751 -1.77765,0.05632 -3.74263,-1.525688 l -1.69079,-1.361265 5.96014,-7.402919 z m -5.81568,6.615413 q 1.05103,0.846192 2.02578,1.179061 0.97475,0.332869 1.96073,-0.0031 0.99519,-0.347365 1.97935,-1.569761 1.26928,-1.576547 1.14993,-2.971872 -0.10794,-1.386127 -1.69591,-2.664613 l -1.39376,-1.122124 -5.07715,6.30619 z m 15.73111,2.84586 -4.58087,9.064298 -0.055,0.0485 -0.5626,-0.638065 1.45725,-2.849162 -2.91966,-3.31134 -2.99952,1.099981 -0.52379,-0.594061 0.055,-0.0485 9.5472,-3.431719 z m -5.95953,2.067358 2.56076,2.904299 2.438,-4.730701 z m 4.48269,10.423347 2.60724,4.077744 -0.60549,0.387136 -3.04178,-4.757368 8.00721,-5.119675 0.43454,0.679624 z m 4.78218,10.636386 q -0.4957,-1.14388 -0.38402,-2.103402 0.13097,-0.951897 0.76166,-1.672783 0.6307,-0.720885 1.68038,-1.175768 l 5.32913,-2.309406 0.32075,0.740158 -5.1811,2.245255 q -3.02792,1.312162 -1.84406,4.044016 0.57152,1.318826 1.62256,1.678571 1.07033,0.367371 2.52373,-0.262467 l 5.23493,-2.268582 0.32075,0.740157 -5.28876,2.29191 q -1.23808,0.536529 -2.24964,0.415429 -0.99227,-0.113474 -1.71315,-0.744169 -0.7016,-0.623071 -1.13316,-1.618919 z m 3.46573,10.248904 q -0.21681,-0.883112 -0.15625,-1.743705 0.0748,-0.864089 0.41974,-1.673676 l 0.66416,0.244707 q -0.31618,0.742121 -0.36574,1.524501 -0.0461,0.796624 0.12528,1.494568 0.29374,1.196474 0.9214,1.661574 0.62765,0.4651 1.48228,0.255289 0.56975,-0.139874 0.8594,-0.497926 0.3039,-0.361549 0.43414,-0.876796 0.13025,-0.515246 0.23004,-1.400573 l 0.019,-0.291612 q 0.1108,-0.96354 0.26279,-1.574739 0.15549,-0.596955 0.52737,-1.050704 0.38612,-0.457246 1.08406,-0.628592 0.72643,-0.178339 1.35136,0.0911 0.64267,0.280188 1.07766,0.883203 0.44922,0.599519 0.64155,1.382925 0.19233,0.783405 0.15002,1.533801 -0.0281,0.7469 -0.31977,1.588726 l -0.66417,-0.244706 q 0.24147,-0.738881 0.27627,-1.39682 0.0383,-0.643697 -0.13304,-1.34164 -0.12589,-0.512774 -0.41571,-0.955099 -0.28982,-0.442325 -0.72284,-0.668266 -0.43302,-0.225941 -0.98853,-0.08956 -0.47004,0.115396 -0.73445,0.391739 -0.26091,0.290587 -0.39815,0.777346 -0.13374,0.501002 -0.22629,1.354345 l -0.0333,0.295109 q -0.10381,0.992027 -0.25231,1.61747 -0.14849,0.625443 -0.5776,1.153651 -0.42561,0.542452 -1.25175,0.74527 -0.7834,0.192327 -1.44407,-0.03814 -0.64643,-0.233959 -1.12039,-0.872713 -0.47396,-0.638753 -0.72223,-1.650058 z"
       id="text23"
       style="font-weight:300;font-size:14.6667px;line-height:0;font-family:Dubai;-inkscape-font-specification:'Dubai, Light';letter-spacing:2px;fill:#776b40;stroke:#776b40;stroke-width:0"
       aria-label="LIBRERÍA AL-ÁNDALUS"
       inkscape:label="librería (sup)" />
    <path
       d="m 207.12663,91.300723 1.20978,-4.686378 0.69586,0.179633 -1.41141,5.467442 -9.20234,-2.375565 0.20163,-0.781063 z m 3.21871,-8.036844 -8.8661,-3.423278 0.29056,-0.752523 8.86609,3.423278 z m -0.13283,-11.330453 q 0.69086,-0.91054 1.51048,-1.101824 0.82658,-0.204193 1.63991,0.234307 0.63258,0.341055 0.98193,0.929306 0.3434,0.56838 0.28434,1.419654 -0.072,0.844313 -0.64967,1.915837 l -1.46167,2.711084 -8.36563,-4.510284 1.44079,-2.672354 q 0.46634,-0.864965 1.04572,-1.352396 0.57939,-0.48743 1.23106,-0.552646 0.64573,-0.08509 1.31704,0.276849 0.67132,0.361937 0.97195,1.040557 0.30758,0.66571 0.0538,1.66191 z m -5.07072,1.215169 3.18875,1.719197 1.00228,-1.859028 q 0.50114,-0.929515 0.42807,-1.752051 -0.086,-0.829497 -0.96386,-1.302798 -0.43893,-0.236651 -0.89292,-0.19815 -0.45398,0.0385 -0.88428,0.373033 -0.4303,0.334533 -0.77135,0.967119 z m 8.27966,1.764606 q 0.61947,-1.148983 0.44009,-1.928861 -0.17243,-0.792788 -0.90829,-1.189526 -0.81333,-0.4385 -1.55852,-0.107114 -0.7581,0.324426 -1.33581,1.395949 l -1.13453,2.104318 3.36949,1.816642 z m 8.51167,-11.384208 0.0581,0.04475 -0.56385,0.73202 -4.96931,-0.01396 -1.1277,1.46404 3.12561,2.40755 -0.49225,0.639065 -7.52935,-5.7996 1.69155,-2.19606 q 0.63545,-0.824975 1.35914,-1.211712 0.71208,-0.395688 1.44174,-0.333511 0.71805,0.05323 1.36873,0.554428 0.56935,0.43855 0.85512,1.028937 0.28311,0.569818 0.24778,1.264623 -0.0353,0.694805 -0.4409,1.437659 z m -7.14887,1.806199 1.1814,-1.533756 q 0.7697,-0.999265 0.70139,-1.847948 -0.0593,-0.860302 -0.82623,-1.451002 -0.76688,-0.5907 -1.5906,-0.410598 -0.81476,0.168483 -1.58446,1.167748 l -1.1814,1.533756 z m 9.88064,-5.524264 3.51265,-3.329712 0.48433,0.510932 -4.0981,3.884664 -6.53834,-6.897572 4.04487,-3.834214 0.48432,0.510931 -3.45943,3.279262 2.50233,2.639811 3.0443,-2.88575 0.41037,0.560827 -2.98044,2.82521 z m 12.74814,-9.303243 0.0416,0.0604 -0.76111,0.523929 -4.72578,-1.536624 -1.5222,1.047858 2.23709,3.24979 -0.66445,0.457399 -5.38899,-7.82849 2.28331,-1.571788 q 0.85775,-0.59046 1.66516,-0.73673 0.79909,-0.158351 1.47456,0.12451 0.66716,0.27078 1.13287,0.947316 0.4075,0.591969 0.49854,1.241536 0.0948,0.62917 -0.15182,1.279694 -0.24662,0.650524 -0.86039,1.233284 z m -7.35838,-0.472239 1.59469,-1.097756 q 1.03897,-0.715205 1.23411,-1.543967 0.20723,-0.837078 -0.34165,-1.634424 -0.54888,-0.797346 -1.38815,-0.878425 -0.82718,-0.08939 -1.86615,0.625811 l -1.59469,1.097756 z m 10.69684,-1.202262 -4.38916,-8.429807 0.71549,-0.372538 4.38917,8.429807 z m -4.9292,-8.958872 -0.42898,-0.156965 1.16509,-2.557841 0.66798,0.330165 z m 10.03867,-3.664338 6.78815,7.554257 0.0253,0.06884 -0.79857,0.293127 -2.12742,-2.390682 -4.1443,1.521226 -0.0618,3.194253 -0.7435,0.272911 -0.0253,-0.06884 0.26129,-10.141857 z m -0.2328,6.303629 3.63487,-1.334232 -3.52566,-3.986619 z m 18.92522,-10.42813 4.63934,9.034509 0.007,0.07301 -0.8469,0.07998 -1.44807,-2.853831 -4.39512,0.415078 -0.8736,3.073092 -0.7885,0.07447 -0.007,-0.07301 2.83674,-9.740556 z m -1.83124,6.036265 3.85485,-0.364056 -2.39353,-4.753356 z m 11.06433,2.506177 4.83258,0.268075 -0.0398,0.717565 -5.63801,-0.312753 0.5264,-9.489433 0.80543,0.04468 z m 7.5895,-2.147544 0.12679,-0.707396 3.84015,0.688279 -0.12679,0.707396 z m 13.54587,-2.783879 0.61902,10.13719 -0.023,0.06963 -0.80769,-0.266985 -0.1796,-3.195155 -4.19161,-1.385563 -2.03457,2.463246 -0.75198,-0.248572 0.023,-0.06963 6.51089,-7.780352 z m -4.10195,4.792072 3.67636,1.215245 -0.2823,-5.314479 z m 3.29701,-5.815064 -0.18657,-0.416956 2.64595,-0.948139 0.22904,0.709046 z m 15.85592,7.943309 -4.54106,8.348965 -0.83747,-0.455508 -0.8991,-8.937101 q -0.009,-0.105336 -0.0567,-0.448246 -0.0273,-0.348785 -0.023,-0.663663 l -3.99445,7.343997 -0.68287,-0.371414 4.54106,-8.348965 0.78594,0.427476 0.91538,8.845781 q 0.0414,0.323017 0.0558,0.664794 0.0343,0.335902 0.0242,0.630888 l 4.02949,-7.408418 z m 7.40921,5.273179 q 1.87358,1.508429 2.09517,3.174358 0.23301,1.675127 -1.29381,3.571554 -1.51763,1.885002 -3.30448,1.952751 -1.77765,0.05632 -3.74263,-1.525688 l -1.69079,-1.361265 5.96014,-7.402919 z m -5.81568,6.615413 q 1.05103,0.846192 2.02578,1.179061 0.97475,0.332869 1.96073,-0.0031 0.99519,-0.347365 1.97935,-1.569761 1.26928,-1.576547 1.14993,-2.971872 -0.10794,-1.386127 -1.69591,-2.664613 l -1.39376,-1.122124 -5.07715,6.30619 z m 15.73111,2.84586 -4.58087,9.064298 -0.055,0.0485 -0.5626,-0.638065 1.45725,-2.849162 -2.91966,-3.31134 -2.99952,1.099981 -0.52379,-0.594061 0.055,-0.0485 9.5472,-3.431719 z m -5.95953,2.067358 2.56076,2.904299 2.438,-4.730701 z m 4.48269,10.423347 2.60724,4.077744 -0.60549,0.387136 -3.04178,-4.757368 8.00721,-5.119675 0.43454,0.679624 z m 4.78218,10.636386 q -0.4957,-1.14388 -0.38402,-2.103402 0.13097,-0.951897 0.76166,-1.672783 0.6307,-0.720885 1.68038,-1.175768 l 5.32913,-2.309406 0.32075,0.740158 -5.1811,2.245255 q -3.02792,1.312162 -1.84406,4.044016 0.57152,1.318826 1.62256,1.678571 1.07033,0.367371 2.52373,-0.262467 l 5.23493,-2.268582 0.32075,0.740157 -5.28876,2.29191 q -1.23808,0.536529 -2.24964,0.415429 -0.99227,-0.113474 -1.71315,-0.744169 -0.7016,-0.623071 -1.13316,-1.618919 z m 3.46573,10.248904 q -0.21681,-0.883112 -0.15625,-1.743705 0.0748,-0.864089 0.41974,-1.673676 l 0.66416,0.244707 q -0.31618,0.742121 -0.36574,1.524501 -0.0461,0.796624 0.12528,1.494568 0.29374,1.196474 0.9214,1.661574 0.62765,0.4651 1.48228,0.255289 0.56975,-0.139874 0.8594,-0.497926 0.3039,-0.361549 0.43414,-0.876796 0.13025,-0.515246 0.23004,-1.400573 l 0.019,-0.291612 q 0.1108,-0.96354 0.26279,-1.574739 0.15549,-0.596955 0.52737,-1.050704 0.38612,-0.457246 1.08406,-0.628592 0.72643,-0.178339 1.35136,0.0911 0.64267,0.280188 1.07766,0.883203 0.44922,0.599519 0.64155,1.382925 0.19233,0.783405 0.15002,1.533801 -0.0281,0.7469 -0.31977,1.588726 l -0.66417,-0.244706 q 0.24147,-0.738881 0.27627,-1.39682 0.0383,-0.643697 -0.13304,-1.34164 -0.12589,-0.512774 -0.41571,-0.955099 -0.28982,-0.442325 -0.72284,-0.668266 -0.43302,-0.225941 -0.98853,-0.08956 -0.47004,0.115396 -0.73445,0.391739 -0.26091,0.290587 -0.39815,0.777346 -0.13374,0.501002 -0.22629,1.354345 l -0.0333,0.295109 q -0.10381,0.992027 -0.25231,1.61747 -0.14849,0.625443 -0.5776,1.153651 -0.42561,0.542452 -1.25175,0.74527 -0.7834,0.192327 -1.44407,-0.03814 -0.64643,-0.233959 -1.12039,-0.872713 -0.47396,-0.638753 -0.72223,-1.650058 z"
       id="text23-5"
       style="-inkscape-font-specification:'Dubai, Light';display:none;fill:#ffffff;stroke:#776b40;stroke-width:0"
       transform="rotate(180,271.14994,106.43362)"
       aria-label="LIBRERÍA AL-ÁNDALUS"
       inkscape:label="librería (inf)" />
  </g>
</svg>
